<svg viewBox="0 0 100 175" xmlns="http://www.w3.org/2000/svg">
  <!-- Rectus abdominis — two columns separated by linea alba -->
  <!-- Left column (3 segments with tendinous inscriptions) -->
  <path d="M43,52 C41,52 39,55 39,60 C39,68 41,75 43,78 C45,79 47,78 48,77 C49,74 50,67 50,60 C50,55 49,52 47,52 Z"
        fill="white"/>
  <!-- Right column -->
  <path d="M57,52 C59,52 61,55 61,60 C61,68 59,75 57,78 C55,79 53,78 52,77 C51,74 50,67 50,60 C50,55 51,52 53,52 Z"
        fill="white"/>
  <!-- Oblique hints — subtle triangular side panels -->
  <path d="M39,55 C36,57 34,62 35,68 C36,72 38,74 40,73 C39,70 39,63 39,55 Z"
        fill="white" opacity="0.5"/>
  <path d="M61,55 C64,57 66,62 65,68 C64,72 62,74 60,73 C61,70 61,63 61,55 Z"
        fill="white" opacity="0.5"/>
</svg>
