<svg viewBox="0 0 100 175" xmlns="http://www.w3.org/2000/svg">
  <!-- Pectoralis major — left and right fan-shaped lobes meeting at sternum -->
  <!-- Left pec: origin at sternum, insertion toward shoulder, fan downward -->
  <path d="M50,29 C47,28 42,27 37,27 C32,27 28,30 26,34 C24,38 25,43 28,47 C31,50 36,51 41,51 C45,51 48,50 50,48 Z"
        fill="white"/>
  <!-- Right pec: mirror of left -->
  <path d="M50,29 C53,28 58,27 63,27 C68,27 72,30 74,34 C76,38 75,43 72,47 C69,50 64,51 59,51 C55,51 52,50 50,48 Z"
        fill="white"/>
</svg>
